<svg width="24" height="27" viewBox="0 0 24 27" fill="none" xmlns="http://www.w3.org/2000/svg">
<path fill-rule="evenodd" clip-rule="evenodd" d="M0.79142 8.87695C0.333984 9.87152 0.333984 11.003 0.333984 13.2659V20.3332C0.333984 23.4759 0.333984 25.0473 1.31029 26.0236C2.26919 26.9825 3.80209 26.9996 6.83398 26.9999V18.6667C6.83398 17.1939 8.02789 16 9.50065 16H14.5006C15.9734 16 17.1673 17.1939 17.1673 18.6667V26.9999C20.1992 26.9996 21.7321 26.9825 22.691 26.0236C23.6673 25.0473 23.6673 23.4759 23.6673 20.3332V13.2659C23.6673 11.003 23.6673 9.87152 23.2099 8.87695C22.7524 7.88239 21.8934 7.14604 20.1752 5.67335L18.5086 4.24478C15.403 1.58289 13.8503 0.251953 12.0006 0.251953C10.151 0.251953 8.59826 1.58289 5.49274 4.24478L3.82607 5.67335C2.10793 7.14604 1.24886 7.88239 0.79142 8.87695ZM15.1673 26.9999V18.6667C15.1673 18.2985 14.8688 18 14.5006 18H9.50065C9.13246 18 8.83398 18.2985 8.83398 18.6667V26.9999H15.1673Z" fill="#EA3CC3"/>
</svg>
