<svg width="20" height="20" viewBox="0 0 20 20" fill="none" xmlns="http://www.w3.org/2000/svg">
<path d="M14.5 1L5.5 1C3.01472 1 1 3.01472 1 5.5L1 14.5C1 16.9853 3.01472 19 5.5 19H14.5C16.9853 19 19 16.9853 19 14.5V5.5C19 3.01472 16.9853 1 14.5 1Z" stroke="white" stroke-width="1.5" stroke-linecap="round" stroke-linejoin="round"/>
<path d="M13.5998 9.43284C13.7109 10.1819 13.5829 10.9468 13.2342 11.619C12.8854 12.2911 12.3336 12.8361 11.6572 13.1766C10.9809 13.517 10.2144 13.6355 9.46679 13.5152C8.7192 13.3949 8.02857 13.0419 7.49314 12.5065C6.95771 11.9711 6.60474 11.2804 6.48445 10.5328C6.36415 9.78524 6.48264 9.01875 6.82308 8.34238C7.16351 7.66601 7.70855 7.11421 8.38067 6.76546C9.05279 6.41671 9.81776 6.28877 10.5668 6.39984C11.3308 6.51314 12.0382 6.86916 12.5843 7.41532C13.1305 7.96148 13.4865 8.66881 13.5998 9.43284Z" stroke="white" stroke-width="1.5" stroke-linecap="round" stroke-linejoin="round"/>
<path d="M14.95 5.04999H14.959" stroke="white" stroke-width="1.5" stroke-linecap="round" stroke-linejoin="round"/>
</svg>
