<svg width="17" height="17" viewBox="0 0 17 17" fill="none" xmlns="http://www.w3.org/2000/svg">
<circle cx="8.83984" cy="8.16016" r="8.16016" fill="white"/>
<path d="M12.11 4.4442C11.9735 4.36831 11.8234 4.32007 11.6683 4.30222C11.5132 4.28437 11.3561 4.29727 11.206 4.34018C11.0559 4.38308 10.9157 4.45515 10.7934 4.55228C10.6711 4.6494 10.5692 4.76967 10.4934 4.90622L8.28657 8.87953L7.0236 7.61594C6.91395 7.50236 6.78279 7.41176 6.63776 7.34943C6.49274 7.2871 6.33676 7.25429 6.17893 7.25292C6.0211 7.25155 5.86457 7.28164 5.71849 7.34144C5.5724 7.40123 5.43968 7.48954 5.32808 7.6012C5.21647 7.71286 5.1282 7.84565 5.06844 7.9918C5.00867 8.13796 4.97859 8.29456 4.97996 8.45247C4.98134 8.61037 5.01413 8.76643 5.07642 8.91152C5.13872 9.05662 5.22928 9.18784 5.34281 9.29755L7.72017 11.6761C7.94483 11.9014 8.24794 12.0251 8.56057 12.0251L8.7252 12.0132C8.90739 11.9877 9.08118 11.9203 9.23289 11.8161C9.3846 11.712 9.51009 11.5741 9.59947 11.4132L12.5712 6.06159C12.647 5.92509 12.6953 5.77498 12.7132 5.61982C12.7311 5.46467 12.7182 5.30751 12.6754 5.15732C12.6326 5.00713 12.5606 4.86685 12.4636 4.74449C12.3666 4.62214 12.2464 4.52009 12.11 4.4442Z" fill="#EA3CC3"/>
</svg>
