<svg width="235" height="68" viewBox="0 0 235 68" fill="none" xmlns="http://www.w3.org/2000/svg">
<path d="M106.801 51.1299C110.09 47.7513 113.387 44.3808 116.662 40.9884C117.472 40.1484 118.209 39.2371 119.186 38.1233C114.895 38.0822 111.049 39.8119 107.088 39.0641C107.041 38.8872 106.993 38.7103 106.946 38.5334C107.448 38.2897 107.926 37.9615 108.454 37.8157C112.449 36.714 116.435 35.5697 120.464 34.6105C122.018 34.2406 123.196 33.7038 123.789 32.1346C124.067 31.3982 124.502 30.7088 124.941 30.0478C125.782 28.781 126.996 28.5328 128.584 29.333C127.963 30.6773 127.338 32.0311 126.592 33.646C130.416 33.5268 133.963 32.2056 137.458 33.3706C137.487 33.5475 137.515 33.7244 137.543 33.9014C136.946 34.1388 136.367 34.4477 135.749 34.6018C132.389 35.4396 128.997 36.1603 125.666 37.0973C124.584 37.4016 123.331 38.0057 122.707 38.8701C119.784 42.9132 117.014 47.0694 114.288 51.249C113.743 52.0841 113.626 53.1981 113.311 54.1835C113.463 54.3222 113.614 54.461 113.766 54.5997C114.39 54.3461 115.079 54.19 115.628 53.8236C120.769 50.3918 125.497 46.4993 129.126 41.4221C130.211 39.9046 131.589 39.5595 133.531 40.3035C131.309 43.8715 128.78 47.239 128.013 51.9116C129.054 51.4757 129.699 51.2975 130.247 50.9622C135.203 47.9307 139.621 44.3234 142.641 39.2369C142.898 38.8026 143.202 38.2043 143.602 38.0894C144.242 37.9054 144.979 38.0626 145.676 38.0756C145.602 38.6227 145.679 39.254 145.43 39.7032C143.886 42.4786 142.239 45.1962 140.7 47.9735C140.343 48.6177 140.269 49.4191 140.392 50.3067C145.266 45.9409 149.305 41.096 150.513 34.4726C151.877 35.4699 152.573 37.071 151.954 38.8955C149.888 44.986 146.037 49.7651 140.624 53.1624C137.849 54.9041 136.487 53.7965 136.335 49.7007C135.376 50.5862 134.631 51.3961 133.765 52.0468C132.325 53.1298 130.932 54.4272 129.297 55.0663C126.195 56.279 123.956 54.1866 124.564 50.9193C124.652 50.4438 124.736 49.9673 124.516 49.3089C123.593 50.2814 122.713 51.2986 121.739 52.2168C119.798 54.0472 117.865 55.8942 115.812 57.5942C114.656 58.5511 113.209 58.7924 111.836 57.9106C110.457 57.0252 109.934 55.6695 110.13 54.0816C110.266 52.985 110.55 51.9068 110.867 50.3231C108.863 52.3522 107.251 54.1066 105.5 55.7089C104.552 56.5768 103.447 57.3761 102.272 57.8735C99.3559 59.1076 96.001 56.9902 95.8327 53.9408C95.9325 53.9528 96.0737 53.9265 96.124 53.9822C98.4443 56.5498 100.379 56.2595 101.935 53.0906C103.005 50.9111 103.538 48.6384 103.061 45.736C102.253 46.3365 101.629 46.7225 101.097 47.2092C96.8198 51.1202 92.6445 55.148 88.2576 58.9307C86.2473 60.6641 83.8596 61.9895 81.0166 62.0052C78.6474 62.0182 77.319 60.9475 77.6807 58.5917C78.0243 56.3532 78.7696 54.047 79.89 52.0857C81.8379 48.6758 84.5741 45.9333 88.5165 44.7634C89.103 44.5894 89.7512 44.5051 90.3598 44.5453C92.4245 44.6818 93.317 46.0608 92.2711 47.8065C90.1095 51.4146 87.3119 54.2193 82.8332 54.9268C82.1988 55.027 81.4724 56.5823 81.371 57.5266C81.2308 58.8321 82.4767 58.6005 83.2538 58.4079C86.7334 57.5456 89.43 55.3078 92.0799 53.0786C95.9974 49.7829 99.8514 46.4198 102.863 42.193C103.366 41.4882 104.685 41.0843 105.621 41.0941C106.058 41.0987 106.83 42.4137 106.848 43.1496C106.909 45.6352 106.7 48.1275 106.522 50.814C106.567 51.0504 106.684 51.0902 106.801 51.1299ZM87.5636 49.8241C88.2786 48.9793 88.9935 48.1345 89.7085 47.2896C89.5501 47.157 89.3916 47.0243 89.2332 46.8917C86.7245 48.1433 85.0504 50.2579 83.4036 52.4008C83.5467 52.5691 83.6897 52.7375 83.8328 52.9058C85.0179 51.9344 86.203 50.9629 87.5636 49.8241ZM136.574 49.3712C136.538 49.4052 136.478 49.4367 136.474 49.4738C136.47 49.511 136.523 49.5538 136.552 49.5941C136.587 49.5602 136.623 49.5262 136.574 49.3712Z" fill="#EA3CC3"/>
<path d="M152.851 27.5007C148.599 29.741 144.255 29.9949 139.845 28.6813C133.892 26.9086 130.256 21.4035 130.411 14.6526C130.563 7.97897 134.208 3.06326 140.287 1.33166C147.06 -0.597413 153.97 1.61788 157.39 6.90483C161.232 12.8448 160.428 23.2167 152.851 27.5007ZM138.412 10.5708C138.205 12.9097 137.632 15.2875 137.875 17.5786C138.28 21.3891 141.059 23.6435 144.761 23.7929C148.285 23.935 151.158 21.8695 151.991 18.3707C152.34 16.9042 152.477 15.3309 152.384 13.8264C152.14 9.89492 149.979 7.20369 146.724 6.4753C143.211 5.68925 140.487 6.96093 138.412 10.5708Z" fill="white"/>
<path d="M25.3419 11.1013C27.5923 20.8998 21.852 28.4283 11.9214 28.7557C8.16968 28.8794 4.41044 28.7758 0.533203 28.7758C0.533203 19.6989 0.533203 10.6236 0.533203 1.4288C4.48427 1.4288 8.5041 1.26408 12.5009 1.496C14.6027 1.61796 16.7768 2.16854 18.7191 2.99405C22.2035 4.47494 24.3548 7.27904 25.3419 11.1013ZM7.26081 21.7424C7.26081 22.2349 7.26081 22.7274 7.26081 23.3103C11.1309 23.2711 15.1931 24.0257 17.4383 20.0227C19.2625 16.7705 19.2587 13.1576 17.3356 9.93841C15.0311 6.08084 11.028 6.92216 7.26082 6.80625C7.26082 11.7675 7.26082 16.5878 7.26081 21.7424Z" fill="white"/>
<path d="M177.099 27.6953C175.646 25.3965 174.044 23.1755 172.788 20.7736C171.822 18.9266 170.56 18.4352 168.585 18.9637C168.585 22.1557 168.585 25.3819 168.585 28.7046C166.285 28.7046 164.092 28.7046 161.795 28.7046C161.795 19.653 161.795 10.5703 161.795 1.59652C166.763 1.59652 171.79 1.23413 176.739 1.70073C181.476 2.14739 183.815 4.70418 184.265 8.4909C184.83 13.2399 183.291 15.8404 178.541 18.0348C179.571 19.6675 180.593 21.2889 181.654 23.072C180.161 24.721 178.63 26.2081 177.099 27.6953ZM173.571 13.2391C173.908 13.1913 174.246 13.1534 174.58 13.094C176.369 12.7766 177.25 11.7153 177.209 9.93492C177.171 8.25763 176.256 7.07987 174.567 6.95879C172.604 6.81816 170.624 6.92601 168.634 6.92601C168.634 9.03175 168.634 11.0991 168.634 13.2817C170.237 13.2817 171.755 13.2817 173.571 13.2391Z" fill="white"/>
<path d="M220.443 1.31324C225.281 1.31325 229.947 1.31325 234.737 1.31325C234.737 3.13131 234.737 4.91853 234.737 6.87813C230.553 6.87813 226.322 6.87813 222.039 6.87813C222.039 8.67825 222.039 10.3093 222.039 12.1407C225.882 12.1407 229.717 12.1407 233.624 12.1407C233.624 14.0811 233.624 15.8235 233.624 17.7573C229.792 17.7573 225.957 17.7573 222.083 17.7573C222.083 19.6772 222.083 21.4054 222.083 23.2539C226.432 23.2539 230.683 23.2539 235 23.2539C235 25.114 235 26.853 235 28.6986C228.407 28.6986 221.835 28.6986 215.166 28.6986C215.166 19.6364 215.166 10.5621 215.166 1.31323C216.885 1.31323 218.579 1.31323 220.443 1.31324Z" fill="white"/>
<path d="M27.8258 28.4532C27.8078 19.6722 27.7899 10.8911 27.8613 1.90694C28.0264 1.62767 28.0738 1.5368 28.0929 1.43115C34.5208 1.43115 40.9487 1.43115 47.4747 1.43115C47.4747 3.14251 47.4747 4.93578 47.4747 6.89157C43.2392 6.89157 39.0034 6.89157 34.6987 6.89157C34.6987 8.67756 34.6987 10.3043 34.6987 12.0763C38.4945 12.0763 42.2798 12.0763 46.1939 12.0763C46.1939 14.0536 46.1939 15.8902 46.1939 17.8447C42.3595 17.8447 38.5641 17.8447 34.699 17.8447C34.699 19.6449 34.699 21.3313 34.699 23.2138C38.9941 23.2138 43.2844 23.2138 47.7096 23.2138C47.7096 24.8803 47.7096 26.3531 47.7985 27.9626C47.8873 28.0993 47.9117 28.0709 47.9117 28.0709C47.3966 28.3148 46.8831 28.7668 46.3661 28.771C40.3784 28.819 34.3902 28.7993 28.2158 28.7066C27.9779 28.541 27.9101 28.4868 27.8258 28.4532Z" fill="white"/>
<path d="M177.048 27.8038C178.63 26.2082 180.161 24.7211 181.75 23.1412C183.206 22.0523 184.604 21.056 186.204 19.9591C186.861 19.6376 187.297 19.3107 187.778 19.2192C188.614 19.0603 189.477 19.0468 190.328 18.9724C190.261 19.7845 190.338 20.6438 190.092 21.3975C189.726 22.5152 189.132 23.5581 188.635 24.6328C184.607 30.462 179.605 35.38 174.368 40.1039C173.385 40.9912 172.707 42.3856 172.282 43.6758C171.885 44.8841 172.79 45.5934 173.954 45.0229C175.313 44.3565 176.646 43.5266 177.779 42.5279C181.48 39.2651 185.086 35.8932 188.882 32.5676C189.035 32.5719 189.129 32.6653 189.129 32.6653C187.686 34.7611 186.398 36.9876 184.762 38.9202C182.597 41.4781 180.205 43.8512 177.818 46.2096C176.9 47.1161 175.805 47.9188 174.655 48.4994C171.583 50.0498 169.017 48.4665 168.867 45.0287C168.836 44.3175 168.862 43.6039 168.862 42.8497C167.503 44.125 166.246 45.3133 164.979 46.4902C163.77 47.6127 162.606 48.7955 161.309 49.8058C160.745 50.2448 159.741 50.6801 159.222 50.4564C158.702 50.2328 158.429 49.2114 158.247 48.4896C158.045 47.6907 158.07 46.8349 157.97 45.7153C156.531 47.2526 155.372 48.6452 154.045 49.8553C153.184 50.641 152.145 51.3201 151.069 51.7615C149.499 52.4056 148.335 51.4412 148.527 49.7414C148.621 48.9083 148.862 48.0551 149.215 47.2939C151.547 42.2693 155.032 38.2144 159.692 35.2128C160.982 34.3819 162.37 33.5913 163.954 34.6888C164.096 34.7877 164.355 34.7145 164.559 34.7299C165.118 34.7721 166.102 34.6974 166.155 34.886C166.337 35.5222 166.42 36.3791 166.123 36.9243C165.01 38.9693 163.703 40.9081 162.528 42.9217C162.098 43.6594 161.835 44.4945 161.723 45.4318C165.387 42.3683 169.606 40.0377 171.912 35.5633C173.306 32.8578 175.283 30.4524 177.048 27.8038ZM184.138 26.3241C184.874 25.2661 185.609 24.2081 186.345 23.1501C186.159 23.0104 185.974 22.8707 185.789 22.731C184.985 23.6851 184.182 24.6392 183.165 25.6702C182.345 26.6995 181.525 27.7287 180.536 28.9009C178.974 31.0214 177.413 33.142 175.852 35.2626C176.087 35.4394 176.323 35.6163 176.558 35.7932C178.431 33.4761 180.304 31.1589 182.37 28.7163C182.895 27.9595 183.42 27.2026 184.138 26.3241ZM162.35 37.2071C158.124 39.2346 155.436 42.684 153.485 46.8103C153.457 46.8708 153.564 46.9957 153.815 47.5369C156.867 44.038 159.789 40.6881 162.844 37.2794C162.828 37.2121 162.812 37.1448 162.796 37.0775C162.731 37.1347 162.666 37.1918 162.35 37.2071ZM169.017 42.4116L169.058 42.285C169.058 42.285 168.955 42.3218 169.017 42.4116Z" fill="#EA3CC3"/>
<path d="M188.728 24.7079C189.132 23.558 189.726 22.5151 190.092 21.3974C190.338 20.6437 190.261 19.7844 190.329 18.9723C189.477 19.0467 188.614 19.0602 187.778 19.2191C187.297 19.3106 186.861 19.6375 186.297 19.8714C184.276 13.1025 186.257 6.56702 191.269 3.12389C196.302 -0.33358 204.49 -0.0988244 209.014 3.6426C211.198 5.44853 212.449 7.79159 213.056 10.6505C210.689 10.6505 208.441 10.6505 206.198 10.6505C203.974 6.42735 199.851 5.01808 196.198 7.2245C196.149 7.25382 196.095 7.27327 196.047 7.30365C191.607 10.1307 191.453 19.6628 195.8 22.6341C199.288 25.0186 203.762 23.8934 205.836 20.1757C206.067 19.7617 206.72 19.3686 207.196 19.3443C209.063 19.2489 210.938 19.3053 212.806 19.3053C213.025 22.5736 209.95 26.5969 206.03 28.231C199.955 30.7642 192.814 29.3336 188.728 24.7079Z" fill="white"/>
<path d="M47.8707 28.1078C48.1893 27.8278 48.5961 27.5913 48.8489 27.243C51.5085 23.5786 54.1098 19.8712 56.8083 16.236C57.5034 15.2996 57.4676 14.7 56.7883 13.7582C54.0089 9.90493 51.337 5.97407 48.6052 1.85179C48.5865 1.56053 48.5882 1.48926 48.5899 1.418C50.9186 1.38474 53.249 1.29483 55.5746 1.36445C56.0586 1.37893 56.6633 1.88694 56.976 2.33317C58.5682 4.60589 60.0828 6.93303 61.705 9.36156C63.3231 6.99667 64.9219 4.7604 66.401 2.44758C66.9675 1.5618 67.598 1.25164 68.6178 1.2988C70.3779 1.38018 72.1441 1.33038 74.0609 1.48452C74.2169 1.6962 74.2197 1.75898 74.2225 1.82176C71.2712 6.04911 68.32 10.2765 65.2846 14.6242C68.524 19.2438 71.7951 23.9087 75.2265 28.8021C72.5616 28.8021 70.1411 28.8557 67.7268 28.7568C67.2442 28.737 66.6528 28.2295 66.3377 27.7861C64.6041 25.3467 62.9407 22.8573 61.1677 20.2596C59.4511 22.7274 57.7935 25.006 56.2588 27.3646C55.5774 28.4117 54.8743 28.962 53.5411 28.8367C51.9617 28.6883 50.3572 28.8216 48.7647 28.7834C48.4812 28.7766 48.2034 28.5291 47.9174 28.2319C47.9118 28.0709 47.8875 28.0994 47.8707 28.1078Z" fill="white"/>
<path d="M121.362 12.1688C123.395 12.1688 125.257 12.1688 127.188 12.1688C127.188 14.1108 127.188 15.9124 127.188 17.7979C123.321 17.7979 119.522 17.7979 115.593 17.7979C115.593 21.4332 115.593 24.9896 115.593 28.6744C113.229 28.6744 110.99 28.6744 108.696 28.6744C108.696 19.6181 108.696 10.535 108.696 1.38354C115.292 1.38354 121.815 1.38354 128.44 1.38354C128.44 3.18604 128.44 4.9666 128.44 6.87271C124.184 6.87271 119.942 6.87271 115.602 6.87271C115.602 8.66443 115.602 10.3345 115.602 12.1688C117.477 12.1688 119.334 12.1688 121.362 12.1688Z" fill="white"/>
<path d="M57.0021 67.136C55.171 66.5176 54.9785 65.1722 55.4908 63.7836C56.4112 61.289 57.5216 58.8643 58.5648 56.4156C58.7791 55.9127 59.0472 55.4327 59.3686 54.7846C58.8891 54.7328 58.6274 54.7282 58.377 54.6728C57.7902 54.5428 57.2088 54.3883 56.6252 54.2438C56.9587 53.5616 57.2677 52.8653 57.6439 52.2075C57.7309 52.0553 58.0411 51.9986 58.2597 51.9586C60.9424 51.4678 62.7256 49.7756 64.3707 47.7171C66.0975 45.5564 68.0793 43.5996 70.0916 41.3983C64.4745 42.1117 59.2869 44.1888 53.8274 44.565C53.7411 44.3145 53.6547 44.0641 53.5684 43.8137C54.2917 43.3492 54.9792 42.8128 55.7441 42.4318C61.3376 39.6454 67.3749 38.2787 73.4328 37.0057C78.4482 35.9518 83.5087 35.232 88.6526 35.6245C89.8975 35.7194 91.1208 36.0977 92.3539 36.3457C92.3688 36.5832 92.3836 36.8208 92.3984 37.0584C91.7732 37.2629 91.1618 37.5444 90.5206 37.6596C85.8849 38.492 81.2306 39.2276 76.6139 40.1523C75.6711 40.3411 74.6823 41.0394 74.0256 41.7789C72.0415 44.0129 70.2103 46.3828 68.0651 49.0114C70.149 48.6554 71.7982 48.2879 73.4675 48.1186C74.5766 48.006 75.7869 47.9564 76.815 48.2947C77.55 48.5366 78.0578 49.4687 78.8892 50.3205C75.5695 51.1827 72.82 52.0605 70.005 52.5893C65.8554 53.3688 63.0173 55.4684 61.6062 59.5461C60.8669 61.6825 59.8421 63.7314 58.8027 65.7458C58.4901 66.3516 57.6942 66.7081 57.0021 67.136Z" fill="#EA3CC3"/>
<path d="M74.3791 1.83416C74.2198 1.75883 74.2169 1.69605 74.2126 1.53902C81.0838 1.40086 87.9563 1.34516 94.8289 1.34204C95.2455 1.34185 95.8135 1.65491 96.053 2.00087C97.1087 3.52579 98.0696 5.11626 99.1941 6.88628C96.1392 6.88628 93.2798 6.88628 90.3332 6.88628C90.3332 14.2605 90.3332 21.4769 90.3332 28.7437C88.0428 28.7437 85.8442 28.7437 83.5183 28.7437C83.5183 21.4884 83.5183 14.2918 83.5183 6.9724C80.5736 6.9724 77.7511 6.9724 74.7811 6.9724C74.6956 5.18803 74.6156 3.51737 74.3791 1.83416Z" fill="white"/>
<path d="M188.989 32.5247C189.02 32.4102 189.098 32.3431 189.176 32.2759C189.199 32.3678 189.223 32.4597 189.188 32.6086C189.129 32.6654 189.035 32.572 188.989 32.5247Z" fill="#EA3CC3"/>
<path d="M27.8043 28.5419C27.91 28.4867 27.9779 28.5409 28.0582 28.6748C27.9856 28.6996 27.8842 28.6652 27.8043 28.5419Z" fill="white"/>
<path d="M48.4861 1.39575C48.5881 1.48919 48.5864 1.56046 48.5789 1.73852C48.5095 1.68806 48.446 1.53082 48.4861 1.39575Z" fill="white"/>
<path d="M27.9903 1.42139C28.0739 1.53656 28.0265 1.62743 27.8869 1.74793C27.8445 1.66551 27.866 1.53868 27.9903 1.42139Z" fill="white"/>
<path d="M136.616 49.4318C136.623 49.5267 136.587 49.5608 136.552 49.5949C136.524 49.5544 136.47 49.5114 136.474 49.4741C136.478 49.4367 136.538 49.4051 136.616 49.4318Z" fill="white"/>
<path d="M106.745 51.0729C106.684 51.0909 106.567 51.051 106.51 50.9558C106.571 50.9006 106.687 51.015 106.745 51.0729Z" fill="white"/>
<path d="M182.274 28.7792C181.785 28.8284 181.393 28.8149 180.853 28.7798C181.526 27.7289 182.345 26.6996 183.341 25.7412C183.659 26.0233 183.802 26.2346 183.944 26.4458C183.42 27.2027 182.895 27.9596 182.274 28.7792Z" fill="white"/>
<path d="M162.629 37.2708C162.666 37.192 162.731 37.1348 162.796 37.0776C162.812 37.1449 162.828 37.2122 162.777 37.3089C162.71 37.3382 162.657 37.2926 162.629 37.2708Z" fill="white"/>
<path d="M168.986 42.3673C168.955 42.3221 169.059 42.2852 169.059 42.2852C169.059 42.2852 169.017 42.4126 168.986 42.3673Z" fill="white"/>
</svg>
